/* XPM */
static const char *matlab48c_icon_xpm[] = {
/* width height ncolors chars_per_pixel */
"48 48 18 1",
/* colors */
"  c #000000",
". c #F8DE51",
"X c #F1C408",
"o c #816E5D",
"O c #838E8D",
"+ c #3B2121",
"@ c #7A1F13",
"# c #C46B41",
"$ c #DFDBD8",
"% c #EC934D",
"& c #BF9055",
"* c #80B8D3",
"= c #BA3718",
"- c #DB611A",
"; c #FFFFFF",
": c #B8BAB9",
"> c #EA8E1D",
", c #97A7A2",
/* pixels */
";;;;;;;;;;;;;;;;;;;;;;;;;;;;;;;;;;;;;;;;;;;;;;;;",
";;;;;;;;;;;;;;;;;;;;;;;;;;;;;;;;;;;;;;;;;;;;;;;;",
";;;;;;;;;;;;;;;;;;;;;;;;;;;;;;;;;;;;;;;;;;;;;;;;",
"         o;;;;;;;;;;;;;;;;;;;;;;;;;;;;;;;;;;;;;;",
"              :;;;;;;;;;;;;;;;;;;;;;;;;;;;;;;;;;",
"                   :;;;;;;;;;;;;;;;;;;;;;;;;;;;;",
"                             ,o o=,;;;;;;;;;;;;;",
"                              , @==,;;;;;;;;;;;;",
"                               ==o==   ;;;;;;;;;",
"                             o o=X==    ;;;;;;;;",
"                            o* =>XX==   ;;;;;;;;",
"                           o ,= >.>&=   ;;;;;;;;",
"                           o, o=XX>>-=  ;;;;;;;;",
"                          o    =.XXX==  ;;;;;;;;",
"                         o,,  #=XX.>=== ;;;;;;;;",
"                        ooO   =o>XX>==@ ;;;;;;;;",
"                        o,o o@=&>.XX=== ;;;;;;;;",
"                       ,o ,   =->XX>==@ ;;;;;;;;",
"                    ,oo  * o@==>X.XX=== ;;;;;;;;",
"                  ,*oOo* :   ==&-XX.-===;;;;;;;;",
"                  Oo,o  ,  o= ->>XXX>#@-,;;;;;;;",
"                o          @ --=XX.>-=-==;;;;;;;",
"                   @o       -==>->XX>=-=@;;;;;;;",
"                       ,  o@ ->&>XXX-=-==@$;;;;;",
"           ,,O,O,     o   @=- #=X>X-X&====;;;;;;",
"         ,O,,*Oo*:   ,   o  ==-X->X>>>===@;;;;;;",
"       OO,,,OO:,Oo*  o   @=-=@=>>X.>X>-===$;;;;;",
"    ,,*::,*,*:OOo*oO   =@  ===&-X>>>->X=@@-;;;;;",
"  ,*,*OO*,,,OO:*:O:O,  o o=-==-X->XXX>=#===;;;;;",
"   O,::,,*O:,OOoO:Oo o@ =@ ===->>XX->>>====#$;;;",
"     ,O*,OOOO:O:*Oo+ o =@=- -=#X-X>XX>-&@===;;;;",
"      *,,:O:OO*Ooo+   - o@===-->>-XX%-X===@==;;;",
"       O,,*O:Oo:*,  o@ -====&=oX>>XXXX>=-====$;;",
"         ,O:OO:O+ o@o -o= -=-#>->>>>->-o#-@==;;;",
"         oo,*:O   o @o === --=X->>XX    ;;=#=;;;",
"                 o # == =>=#=>>>X>X     ;;==@=;;",
"                 o@@======>=-->>-       ;;;$-=,;",
"                  # -===-o-#=X>>>       ;;;;;==;",
"                  =-==o=&->>X->X        ;;;;;==;",
"                   =->=X>X->>>          ;;;;;;;;",
"                   &>>>>X-X>>>         :;;;;;;;;",
"                   >>>X>X>XXXX     :;;;;;;;;;;;;",
"                    XX.XXXX-;$;;;;;;;;;;;;;;;;;;",
"                    -XXXXX.$;;;;;;;;;;;;;;;;;;;;",
"                  ;;;X.X.XX;;;;;;;;;;;;;;;;;;;;;",
"         o;;;;;;;;;;;XXX$;$;;;;;;;;;;;;;;;;;;;;;",
"     ,;;;;;;;;;;;;;;;XX;;;;;;;;;;;;;;;;;;;;;;;;;",
" o;;;;;;;;;;;;;;;;;;;;;;;;;;;;;;;;;;;;;;;;;;;;;;"
};
