/* XPM */
static const char *matlab32c_icon_xpm[] = {
/* width height ncolors chars_per_pixel */
"32 32 18 1",
/* colors */
"  c #000000",
". c #F8DE51",
"X c #F1C408",
"o c #816E5D",
"O c #838E8D",
"+ c #455559",
"@ c #3B2121",
"# c #7A1F13",
"$ c #C46B41",
"% c #DFDBD8",
"& c #BF9055",
"* c #80B8D3",
"= c #BA3718",
"- c #DB611A",
"; c #FFFFFF",
": c #B8BAB9",
"> c #EA8E1D",
", c #97A7A2",
/* pixels */
";;;;;;;;;;;;;;;;;;;;;;;;;;;;;;;;",
";;;;;;;;;;;;;;;;;;;;;;;;;;;;;;;;",
"      o;;;;;;;;;;;;;;;;;;;;;;;;;",
"          ;;;;;;;;;;;;;;;;;;;;;;",
"                    o =:;;;;;;;;",
"                    * =-;;;;;;;;",
"                     oX=   ;;;;;",
"                   o =XX=  ;;;;;",
"                  ooo=X>== ;;;;;",
"                  o  =XX== ;;;;;",
"                oo  >$.X-= ;;;;;",
"                ,o o#=XX-# ;;;;;",
"             oO  , o=$.X-= ;;;;;",
"            Ooo* , #=-XX&=-;;;;;",
"           o      #@=&X>>===;;;;",
"             o     -->>X>===;;;;",
"        o,,,   ,  =o==XXX===%;;;",
"      ,,*,,O  ,  o#=->X>>>==;;;;",
"  oOO,,OO,O,,*  = -==>>>>>===%;;",
"  O,,*,*:,O*,O   ===$=XX>>==#;;;",
"    ,:,O,Oo,o o=o= =-X>X->====;;",
"    ,O*:*:*O@ # #=-=&->X>X===#%;",
"      O:oO,@+= -$ -->X>>X-$===;;",
"       ,OO  # $ ===-X=-X   ;=$;;",
"            oo#=-=>$->     ;;;=:",
"            #====&=-X>     ;;;==",
"             &>->>X>       ;;;;;",
"             =>X>>X-      :;;;;;",
"              .XX.>;;;;;;;;;;;;;",
"              XXXX%;;;;;;;;;;;;;",
"      o;;;;;;;X.;;;;;;;;;;;;;;;;",
"    ;;;;;;;;;;XX;;;;;;;;;;;;;;;;"
};
