/* XPM */
static const char *matlab64c_icon_xpm[] = {
/* width height ncolors chars_per_pixel */
"64 64 18 1",
/* colors */
"  c #000000",
". c #F8DE51",
"X c #F1C408",
"o c #816E5D",
"O c #838E8D",
"+ c #3B2121",
"@ c #7A1F13",
"# c #C46B41",
"$ c #DFDBD8",
"% c #EC934D",
"& c #BF9055",
"* c #80B8D3",
"= c #BA3718",
"- c #DB611A",
"; c #FFFFFF",
": c #B8BAB9",
"> c #EA8E1D",
", c #97A7A2",
/* pixels */
";;;;;;;;;;;;;;;;;;;;;;;;;;;;;;;;;;;;;;;;;;;;;;;;;;;;;;;;;;;;;;;;",
";;;;;;;;;;;;;;;;;;;;;;;;;;;;;;;;;;;;;;;;;;;;;;;;;;;;;;;;;;;;;;;;",
";;;;;;;;;;;;;;;;;;;;;;;;;;;;;;;;;;;;;;;;;;;;;;;;;;;;;;;;;;;;;;;;",
"     ,;;;;;;;;;;;;;;;;;;;;;;;;;;;;;;;;;;;;;;;;;;;;;;;;;;;;;;;;;;",
"            o;;;;;;;;;;;;;;;;;;;;;;;;;;;;;;;;;;;;;;;;;;;;;;;;;;;",
"                  :;;;;;;;;;;;;;;;;;;;;;;;;;;;;;;;;;;;;;;;;;;;;;",
"                         :;;;;;;;;;;;;;;;;;;;;;;;;;;;;;;;;;;;;;;",
"                                o;;;;;;;;o @=;;;;;;;;;;;;;;;;;;;",
"                                      ,;o o==,;;;;;;;;;;;;;;;;;;",
"                                       oO @&==:;;;;;;;;;;;;;;;;;",
"                                       O o=.===    :;;;;;;;;;;;;",
"                                      oO o=XX==      ;;;;;;;;;;;",
"                                      o, @=XX&==     ;;;;;;;;;;;",
"                                     o* o >X.>===    ;;;;;;;;;;;",
"                                    o , @#>XXX-==    ;;;;;;;;;;;",
"                                    o*   =%X.X===    ;;;;;;;;;;;",
"                                   oo, o@=XXXXX&==   ;;;;;;;;;;;",
"                                  oOo  ===>.XX>===   ;;;;;;;;;;;",
"                                 ooo*   @=XXXX>====  ;;;;;;;;;;;",
"                                 o*,o  o==%X.XX#==@  ;;;;;;;;;;;",
"                                O ,O   ==#XXX.>-===  ;;;;;;;;;;;",
"                               oo,O  o@=@=>XXXX>==== ;;;;;;;;;;;",
"                              o,oo,    o=->.XXX-==@= ;;;;;;;;;;;",
"                            oOo * O  @-==#XXX.XX#=== ;;;;;;;;;;;",
"                         ooo,oo  :  o o -=>>XX>-==@==;;;;;;;;;;;",
"                        Ooo* oO  O   @=@=#>X.XXX&====;;;;;;;;;;;",
"                       O,Ooo*   :  o@= ==>>XXXX-%o===O;;;;;;;;;;",
"                      oOoo      O  @  ====X>X>X>-====@;;;;;;;;;;",
"                     o         :    =o==-&-XXX>X>=-===;;;;;;;;;;",
"                         o@    O    o== #>XX.X>>X&====;;;;;;;;;;",
"                   o          *   @o@ ====>>>XX-==-@=@=;;;;;;;;;",
"                 o,*o         o  o =====>>XXX>XX%-=====$;;;;;;;;",
"              ,OO*,o:*       *    @o @@=&=>>XX-XX>=====:;;;;;;;;",
"           o*,O:,,,,o,O     ,    ======@=>X->X>>->#===@=;;;;;;;;",
"         *O,O,,*O,o,*O,o,         o @==-&>-XX.>X>X======;;;;;;;;",
"       ,,O:O:*OO:O*,Oo:*oO *   o =@=o=@==X>->->X-=#>==@=,;;;;;;;",
"    o*,*::O*,,::O*O,:*Oo:*+O  = =  -=@==#>>XXXX.X>>======;;;;;;;",
"  ,,,O:O*O*,:OOOOOO:oO,*OOO   o@ =#=====->>->XX>>>-#==@=@;;;;;;;",
"   ,,,*:O,,*O:O*O::O,:oO:o+ o@ o@ = @===X->>XX#>>>>======#;;;;;;",
"     ,,*O:,OOO*OOOOoOO*Ooo   o@ -=-@===&=>>>XXXXXX=#-o====;;;;;;",
"      ,,O*O::OO::O:,:*Oo:+  o o= ======>oX->-X-X->>=&===@=;;;;;;",
"       o:,*,O,OOOo*O:OoO+  o@=  #== -@>#=>>X>XXX%X->======o;;;;;",
"         OO*:O:O:*OOOoo+  o  o=====@>=o=>->>XX#XX>>X=o===@=;;;;;",
"          :O,OO*o:Ooo:+  o@ - = -= ===>#>X-X-XXX>>>=#--====;;;;;",
"            *:OO:O*:O+  o o@ -=-= -=-o=->->-X>-%X>= >&======$;;;",
"             O:*Oo:o+   o@@+= @ =-@===#>>XX>XXX      ;;==#==;;;;",
"               :      # @  #==o===-o>=X=>->-X-       ;;;=@==@$;;",
"                     o=oo=-=o ======#->XX-X>X        ;;;$-===;;;",
"                       @ == ====-#=--=-=>>-X         ;;;;;===:;;",
"                       o= --=====-o-#-X>>>X          ;;;;;;=@=$;",
"                       @-=====&=#XX>>>->>>           ;;;;;;;==$;",
"                        =&==&=-X>->>>>X>>=           ;;;;;;;;==;",
"                         #=-X=>>>>>>>>>>             ;;;;;;;;;;;",
"                         =&>>XX-X>>>X>->            :;;;;;;;;;;;",
"                         >>>>X>XX>X>XXX       :;;;;;;;;;;;;;;;;;",
"                          XXX.XXX.XX-X   :;;;;;;;;;;;;;;;;;;;;;;",
"                          .XXXX.XXXXX$;;;;;;;;;;;;;;;;;;;;;;;;;;",
"                          -X.XXXXX.X,;;;;;;;;;;;;;;;;;;;;;;;;;;;",
"                       ,;;;XXX.XXXX$;;;;;;;;;;;;;;;;;;;;;;;;;;;;",
"                 o;;;;;;;;;:XXXX.,;;;;;;;;;;;;;;;;;;;;;;;;;;;;;;",
"            o;;;;;;;;;;;;;;;X.XX$;;;;;;;;;;;;;;;;;;;;;;;;;;;;;;;",
"      ,;;;;;;;;;;;;;;;;;;;;;XX$;;;;;;;;;;;;;;;;;;;;;;;;;;;;;;;;;",
" o;;;;;;;;;;;;;;;;;;;;;;;;;;;;;;;;;;;;;;;;;;;;;;;;;;;;;;;;;;;;;;",
";;;;;;;;;;;;;;;;;;;;;;;;;;;;;;;;;;;;;;;;;;;;;;;;;;;;;;;;;;;;;;;;"
};
