/* XPM */
static const char *sim32c_icon_xpm[] = {
/* width height ncolors chars_per_pixel */
"32 32 19 1",
/* colors */
"  c #000000",
". c #F8DE51",
"X c #F1C408",
"o c #816E5D",
"O c #838E8D",
"+ c #ECBB9A",
"@ c #3B2121",
"# c #7A1F13",
"$ c #C46B41",
"% c #DFDBD8",
"& c #EC934D",
"* c #BF9055",
"= c #80B8D3",
"- c #BA3718",
"; c #DB611A",
": c #FFFFFF",
"> c #B8BAB9",
", c #EA8E1D",
"< c #97A7A2",
/* pixels */
"::::::::::::::::::::+%::::::::::",
"::::::::::::::::::: o-::::::::::",
"::::::::::::::::::-#-,X:::::::::",
"::::::::::::::::: #  XX,::::::::",
"::::::::::::::::- o-#.XX::::::::",
"::::::::::::::- #o -#XX.%:::::::",
"::::::::::::: #o X-  .XX::::::::",
":::::::::::::- #-X #-XXX:::%<:::",
":::::::::::::oo.oXo o,X,:O<>%:::",
"::::::::::*-:<oX <o-#,<<Oo%%::::",
"::::::::<O-#;o Xooo  ;-#:#:%::::",
"::::::::O>$-oO<<Ooo#o---%O::::::",
"::::::::<O#--o#>ooo #--#: ::::::",
"::::::<+><--oO =ooO o#--:-::::::",
":::::->%=<#o-O<oOO =---#%<::::::",
":::::>O#%O&--ooO@o o#o--: ::::::",
"::::::%:oO-$#Oo#o#o# ---:O::::::",
"::::::::%<%%:%%O o- ----: ::::::",
":::::::::<%%:::%:%::::%::o::::::",
":::::::::<%%::::::::::::: ::::::",
":::::::::O:%:::% ,-X:::::-::::::",
"::::::::::o=%%<O<-X&:::::-::::::",
"::::::::::%o>=Ooo&-*%::::o::::::",
":::::::::::% ;  ----:::::-::::::",
"::::::::::::%oX# ---::::: ::::::",
":::::::::::::-;o--oO%::::-::::::",
":::::::::::::: # --#<O%:%<%:::::",
"::::::::::::::- -;#-%:<>%o::::::",
":::::::::::::::# ---::%%=%::::::",
"::::::::::::::::---#::::%:::::::",
":::::::::::::::: --<::::::::::::",
":::::::::::::::::;::::::::::::::"
};
