/* XPM */
static const char *sim48c_icon_xpm[] = {
/* width height ncolors chars_per_pixel */
"48 48 18 1",
/* colors */
"  c #000000",
". c #F8DE51",
"X c #F1C408",
"o c #816E5D",
"O c #838E8D",
"+ c #3B2121",
"@ c #7A1F13",
"# c #C46B41",
"$ c #DFDBD8",
"% c #EC934D",
"& c #BF9055",
"* c #80B8D3",
"= c #BA3718",
"- c #DB611A",
"; c #FFFFFF",
": c #B8BAB9",
"> c #EA8E1D",
", c #97A7A2",
/* pixels */
";;;;;;;;;;;;;;;;;;;;;;;;;;;;;;,;;;;;;;;;;;;;;;;;",
";;;;;;;;;;;;;;;;;;;;;;;;;;;;;; =;;;;;;;;;;;;;;;;",
";;;;;;;;;;;;;;;;;;;;;;;;;;;;;o=>X;;;;;;;;;;;;;;;",
";;;;;;;;;;;;;;;;;;;;;;;;;;; @@ X->;;;;;;;;;;;;;;",
";;;;;;;;;;;;;;;;;;;;;;;;;;;=o =>XXX$;;;;;;;;;;;;",
";;;;;;;;;;;;;;;;;;;;;;;;;;=  = X>XX.;;;;;;;;;;;;",
";;;;;;;;;;;;;;;;;;;;;;;;=  @ @oXX.XX$;;;;;;;;;;;",
";;;;;;;;;;;;;;;;;;;;;;; @  o== XXXXX;;;;;;;;;;;;",
";;;;;;;;;;;;;;;;;;;;; =@o= @ =@.X.X.$;;;;;;;;;;;",
";;;;;;;;;;;;;;;;;;;;=@ o  X =o@XXXXX;;;;;;;;;;;;",
";;;;;;;;;;;;;;;;;;; @ o@=@Xo @ .XXXX$;;;;;;;;;;;",
";;;;;;;;;;;;;;;;;;;==o =  .== =XX.X>;;;;$;,;;;;;",
";;;;;;;;;;;;;;;;;;;oooO-@#X == >XX>X$OO,,,$;;;;;",
";;;;;;;;;;;;;;;;;;;* O,O oo= @o>>-XoO:O:$*;;;;;;",
";;;;;;;;;;;;;;;#==;o,ooXO Oo, @X=$OO,*o$$;;;;;;;",
";;;;;;;;;;;;,,o====,, &oo*o @o =#=o@:oo$$;;;;;;;",
";;;;;;;;;;;;,o*O==&oo,@> ooo o=#====;oo$;;;;;;;;",
";;;;;;;;;;;;,=O#@==O*Oo,,o ,:@o@===@;oo$$;;;;;;;",
";;;;;;;;;;;;o=*@-o=O,o ,oO,o = -====;oO$;;;;;;;;",
";;;;;;;;;,=o,O:o#%#O,O:o Oo+.o#@==@=;Oo$;;;;;;;;",
";;;;;;;;;oX::$*@=o=O,ooo*ooO  @#@===$o ;;;;;;;;;",
";;;;;;;o=:>:;OO=#=@:*OOoo,ooO* =====;o,$;;;;;;;;",
";;;;;;;==OO=$-*@@=@OOooOOo+  =#@=o==;oo$$;;;;;;;",
";;;;;;;;:,>=,=,.===,,:OooOOo@ =====@;oO*;;;;;;;;",
";;;;;;;;;$;$o O===@oO o@+@ # #o=o===;oo$$;;;;;;;",
";;;;;;;;;;;;:o >@== ==@#@ #@= @===@=;oo$$;;;;;;;",
";;;;;;;;;;;;;;,$;;;;;;;o # o=o@o====$oo$$;;;;;;;",
";;;;;;;;;;;;;;O;;;;;;;;$;;;$$$;$;$$;;oO$$;;;;;;;",
";;;;;;;;;;;;;;,$$;;;;;;;;;;;;;;;;;;;;oo$$;;;;;;;",
";;;;;;;;;;;;;;O;;;;;;;;;;;;;;;;;;;;;;oo$;;;;;;;;",
";;;;;;;;;;;;;;,$$$;;;;;;o@>->X$;;;;;;oO;;;;;;;;;",
";;;;;;;;;;;;;;;,*;$;;;,oO >>XX;;;;;;;o ;;;;;;;;;",
";;;;;;;;;;;;;;;o;,$$$,,*o*->->;;;;;;;o#;;;;;;;;;",
";;;;;;;;;;;;;;;$$oO*:O,o :=&>X;;;;;;;oo$;;;;;;;;",
";;;;;;;;;;;;;;;;;;,,oOOo* ==-=;;;;;;;oo$;;;;;;;;",
";;;;;;;;;;;;;;;;;; O @@  o====;;;;;;;o@;$;;;;;;;",
";;;;;;;;;;;;;;;;;;; #. o=o====;;;;;;;oO$;;;;;;;;",
";;;;;;;;;;;;;;;;;;;@ >= @ ==@=$;;;;;;oo$$;;;;;;;",
";;;;;;;;;;;;;;;;;;;;-Xo= ===OO$;;$;;;o@;;;;;;;;;",
";;;;;;;;;;;;;;;;;;;;;@ @o -=@oO,,;$;;Oo$;;;;;;;;",
";;;;;;;;;;;;;;;;;;;;;o o =====$,,,*$$o ;;;;;;;;;",
";;;;;;;;;;;;;;;;;;;;; = ====@=;;$,,:$OO;;;;;;;;;",
";;;;;;;;;;;;;;;;;;;;;;o@  -===$;;$;$* ;;;;;;;;;;",
";;;;;;;;;;;;;;;;;;;;;;$ =@===@;;;;$;$;;;;;;;;;;;",
";;;;;;;;;;;;;;;;;;;;;;;;=o=@=@;;;;;;;;;;;;;;;;;;",
";;;;;;;;;;;;;;;;;;;;;;;;@ ===,;;;;;;;;;;;;;;;;;;",
";;;;;;;;;;;;;;;;;;;;;;;;;@-=;;;;;;;;;;;;;;;;;;;;",
";;;;;;;;;;;;;;;;;;;;;;;;; =;;;;;;;;;;;;;;;;;;;;;"
};
