/* XPM */
static const char *sim64c_icon_xpm[] = {
/* width height ncolors chars_per_pixel */
"64 64 20 1",
/* colors */
"  c #000000",
". c #F8DE51",
"X c #F1C408",
"o c #816E5D",
"O c #838E8D",
"+ c #455559",
"@ c #ECBB9A",
"# c #3B2121",
"$ c #7A1F13",
"% c #C46B41",
"& c #DFDBD8",
"* c #EC934D",
"= c #BF9055",
"- c #80B8D3",
"; c #BA3718",
": c #DB611A",
"> c #FFFFFF",
", c #B8BAB9",
"< c #EA8E1D",
"1 c #97A7A2",
/* pixels */
">>>>>>>>>>>>>>>>>>>>>>>>>>>>>>>>>>>>>>>>@&>>>>>>>>>>>>>>>>>>>>>>",
">>>>>>>>>>>>>>>>>>>>>>>>>>>>>>>>>>>>>>> o;>>>>>>>>>>>>>>>>>>>>>>",
">>>>>>>>>>>>>>>>>>>>>>>>>>>>>>>>>>>>>>;$;<X>>>>>>>>>>>>>>>>>>>>>",
">>>>>>>>>>>>>>>>>>>>>>>>>>>>>>>>>>>>> $  ;:<>>>>>>>>>>>>>>>>>>>>",
">>>>>>>>>>>>>>>>>>>>>>>>>>>>>>>>>>>>;$ %;X:X<>>>>>>>>>>>>>>>>>>>",
">>>>>>>>>>>>>>>>>>>>>>>>>>>>>>>>>>> $ ;o <XXXX&>>>>>>>>>>>>>>>>>",
">>>>>>>>>>>>>>>>>>>>>>>>>>>>>>>>>>;$o   ;X<.XXX>>>>>>>>>>>>>>>>>",
">>>>>>>>>>>>>>>>>>>>>>>>>>>>>>>>;  o ;;$oXXXX.X&>>>>>>>>>>>>>>>>",
">>>>>>>>>>>>>>>>>>>>>>>>>>>>>>> $$ ;$  % X.XXXX>>>>>>>>>>>>>>>>>",
">>>>>>>>>>>>>>>>>>>>>>>>>>>>>>;;o   ;;o$;XXX.XX&>>>>>>>>>>>>>>>>",
">>>>>>>>>>>>>>>>>>>>>>>>>>>>;  o  ;o; ; $.XXXX.>>>>>>>>>>>>>>>>>",
">>>>>>>>>>>>>>>>>>>>>>>>>>> $o$$;; $ ; :$XX.XXX&>>>>>>>>>>>>>>>>",
">>>>>>>>>>>>>>>>>>>>>>>>>>;$o ;  ;Xo;$$o .XXX.X>>>>>>>>>>>>>>>>>",
">>>>>>>>>>>>>>>>>>>>>>>>> $  ; %$ XX o $;XXXXXX&>>>>>>>>>>>>>>>>",
">>>>>>>>>>>>>>>>>>>>>>>>>;;O$ : o;X.o ; $X.X.XX&>>>>>>>o1>>>>>>>",
">>>>>>>>>>>>>>>>>>>>>>>>>o$OOO; $ XX;; ;oXXXXX.>>>>&O1O1->>>>>>>",
">>>>>>>>>>>>>>>>>>>>>>>>>oO$oo.;o;<X $o; <X<XX:>&O,-1-,-&>>>>>>>",
">>>>>>>>>>>>>>>>>>>>>>>>>Oo-oo - o$o%o $;<<X:<OO,oOO,-,&&>>>>>>>",
">>>>>>>>>>>>>>>>>>>O;;;>>o1ooOX<oo Oo ; o:;%O111O-o,&&&&>>>>>>>>",
">>>>>>>>>>>>>>>>>o 1$;;;;,o-o1O:oX,o o$; <<:1<:,&oo&&>>>>>>>>>>>",
">>>>>>>>>>>>>>>>111-;;o;%*OooOX o Oooo o$;%;;:;>&Oo&>>>>>>>>>>>>",
">>>>>>>>>>>>>>>>1OOoO;;;;o-oO *1o,O $$ $ <;;;$;>>o$>>>>>>>>>>>>>",
">>>>>>>>>>>>>>>>1;O,o$;$;-O,1$O1o 11OOoO :;;;;;>>oO&&>>>>>>>>>>>",
">>>>>>>>>>>>>>>>o;&-o%;;;OO1O=oOOooO1  $ :;;$;;>>oo&&>>>>>>>>>>>",
">>>>>>>>>>>>>>>>:;O1 :;;;O,1 $1OooO o$o$;;;;;;;>>oo&>>>>>>>>>>>>",
">>>>>>>>>>>>,;o;&1O,O*1O=O1-1-ooOoO1ooo o;;$;;;&>oo&>>>>>>>>>>>>",
">>>>>>>>>>>oo<&:,1-O ;;;;1-1 oO OoOO1  : ;:;;;$>>O$&>>>>>>>>>>>>",
">>>>>>>>>>>O;X1>>1&1O;;;;O1O,O1,oOo ooo$o;;;;$;&>oO>>>>>>>>>>>>>",
">>>>>>>>>o;;O*,&,11O$;;+;1-O-1oOOoo-#oo ;;;;;$;>>o >>>>>>>>>>>>>",
">>>>>>>>>;;=Oo:o-X1-O$%;;1O,oOOoOo o$ $o :;;;;;>>OO&&>>>>>>>>>>>",
">>>>>>>>>>,O-<;$,;OOo%;;$OOoOoo , -  % $o;;$;$;&>oo>>>>>>>>>>>>>",
">>>>>>>>>>>>&>>>,@o,$;;;;ooO-oO1 -;o; %; :;;;;;>>o &>>>>>>>>>>>>",
">>>>>>>>>>>>>>>> oO =;;$;;Ooo;o o$ $o;; ;;;;$;;>>o->&>>>>>>>>>>>",
">>>>>>>>>>>>>>>>@ $o:;;;; ;O$ ;$; %o$$ ;o;;;;;;&>oo&&>>>>>>>>>>>",
">>>>>>>>>>>>>>>>>>1>>&>>>>>&>>oo ; $; ; ;;;;;;;>>oO&&>>>>>>>>>>>",
">>>>>>>>>>>>>>>>>>1&>>>>>>>>>>&&>>>>>>>,;;1>>&>>>oo,>>>>>>>>>>>>",
">>>>>>>>>>>>>>>>>>O>&>>>>>>>>>>>>>>>>>>>>>>>>>>>>oo&&>>>>>>>>>>>",
">>>>>>>>>>>>>>>>>>1&&>>>>>>>>>>>>>>>>>>>>>>>>>>>>oO&&>>>>>>>>>>>",
">>>>>>>>>>>>>>>>>>1>>>>>>>>>>>>>>>>>>>>>>>>>>>>>>oo&&>>>>>>>>>>>",
">>>>>>>>>>>>>>>>>>O&&>>>>>>>>>>>>>>>1X<X>>>>>>>>>oO&>>>>>>>>>>>>",
">>>>>>>>>>>>>>>>>>1->&&>>>>>>>>&O$:<<<XX>>>>>>>>>o >>>>>>>>>>>>>",
">>>>>>>>>>>>>>>>>>>&1,&>>>>>>1oOoO$<<<.X>>>>>>>>>o$>>>>>>>>>>>>>",
">>>>>>>>>>>>>>>>>>>>&-1&>&&&,O-1oo*;X<<X>>>>>>>>>OO>>>>>>>>>>>>>",
">>>>>>>>>>>>>>>>>>>>>>&-1-,-O1O,oo:o;*X:>>>>>>>>>oo&>>>>>>>>>>>>",
">>>>>>>>>>>>>>>>>>>>>>o,o1O1-1o1Ooo:=:;<>>>>>>>>>o >>>>>>>>>>>>>",
">>>>>>>>>>>>>>>>>>>>>>&O-o, ooOoo :;:=::>>>>>>>>>oo>>>>>>>>>>>>>",
">>>>>>>>>>>>>>>>>>>>>>>oo-$%;  O o;:$;;;>>>>>>>>>O$>>>>>>>>>>>>>",
">>>>>>>>>>>>>>>>>>>>>>>& $o  %% $ ;;;;;$&>>>>>>>>oo&>>>>>>>>>>>>",
">>>>>>>>>>>>>>>>>>>>>>>>& $oX $%o;%$;;;;>>>>>>>>>oo&>>>>>>>>>>>>",
">>>>>>>>>>>>>>>>>>>>>>>>>$; Xo  $o$;;$;;&>>>>>>>>O >>>>>>>>>>>>>",
">>>>>>>>>>>>>>>>>>>>>>>>>>;;<;$;  ;;;1O:>>>>>>>>>o$>>>>>>>>>>>>>",
">>>>>>>>>>>>>>>>>>>>>>>>>> $X.o ;:;;;$11O1>&>>>>>oo&>>>>>>>>>>>>",
">>>>>>>>>>>>>>>>>>>>>>>>>>>o   ; $;$;;$$111X>&>>>oo>>>>>>>>>>>>>",
">>>>>>>>>>>>>>>>>>>>>>>>>>>&;;;$:o;;;;o;&&-111>&>O >>>>>>>>>>>>>",
">>>>>>>>>>>>>>>>>>>>>>>>>>>>+  $ $;;$;;;&>&1O-1-&oO&>>>>>>>>>>>>",
">>>>>>>>>>>>>>>>>>>>>>>>>>>>&;% ;o$;;;;$&>>>&111,OO&>>>>>>>>>>>>",
">>>>>>>>>>>>>>>>>>>>>>>>>>>>>o$;  ;;;;;;>>>>&>&1-o-&>>>>>>>>>>>>",
">>>>>>>>>>>>>>>>>>>>>>>>>>>>>>  ;;;;;$;$&>>>>>>&,&&>>>>>>>>>>>>>",
">>>>>>>>>>>>>>>>>>>>>>>>>>>>>>>; $%;;;;;>>>>>>>&>&>>>>>>>>>>>>>>",
">>>>>>>>>>>>>>>>>>>>>>>>>>>>>>> ; ;;$;$&>>>>>>>>>>>>>>>>>>>>>>>>",
">>>>>>>>>>>>>>>>>>>>>>>>>>>>>>>>o$;;;;,>>>>>>>>>>>>>>>>>>>>>>>>>",
">>>>>>>>>>>>>>>>>>>>>>>>>>>>>>>>& :;;>>>>>>>>>>>>>>>>>>>>>>>>>>>",
">>>>>>>>>>>>>>>>>>>>>>>>>>>>>>>>>;$:>>>>>>>>>>>>>>>>>>>>>>>>>>>>",
">>>>>>>>>>>>>>>>>>>>>>>>>>>>>>>>>>>>>>>>>>>>>>>>>>>>>>>>>>>>>>>>"
};
